{"glyphs":{"0":{"ha":815,"x_min":0,"x_max":711,"o":"m 204 972 l 650 972 l 677 945 l 598 882 l 224 882 l 171 954 l 204 972 m 157 944 l 214 873 l 157 541 l 113 507 l 71 555 l 133 925 l 157 944 m 688 935 l 711 906 l 654 545 l 602 503 l 564 545 l 610 874 l 688 935 m 109 479 l 147 432 l 98 105 l 19 43 l 0 71 l 62 446 l 109 479 m 597 475 l 640 427 l 578 56 l 550 38 l 494 105 l 551 433 l 597 475 m 111 96 l 482 95 l 536 24 l 498 0 l 57 0 l 33 28 l 111 96 z "},"1":{"ha":815,"x_min":494,"x_max":711,"o":"m 688 935 l 711 906 l 654 545 l 602 503 l 564 545 l 610 874 l 688 935 m 597 475 l 640 427 l 578 56 l 550 38 l 494 105 l 551 433 l 597 475 z "},"2":{"ha":815,"x_min":0,"x_max":711,"o":"m 204 972 l 650 972 l 677 945 l 598 882 l 224 882 l 171 954 l 204 972 m 688 935 l 711 906 l 654 545 l 602 503 l 564 545 l 610 874 l 688 935 m 176 536 l 552 536 l 593 491 l 539 441 l 166 441 l 119 493 l 176 536 m 109 479 l 147 432 l 98 105 l 19 43 l 0 71 l 62 446 l 109 479 m 111 96 l 482 95 l 536 24 l 498 0 l 57 0 l 33 28 l 111 96 z "},"3":{"ha":815,"x_min":33,"x_max":711,"o":"m 204 972 l 650 972 l 677 945 l 598 882 l 224 882 l 171 954 l 204 972 m 688 935 l 711 906 l 654 545 l 602 503 l 564 545 l 610 874 l 688 935 m 176 536 l 552 536 l 593 491 l 539 441 l 166 441 l 119 493 l 176 536 m 597 475 l 640 427 l 578 56 l 550 38 l 494 105 l 551 433 l 597 475 m 111 96 l 482 95 l 536 24 l 498 0 l 57 0 l 33 28 l 111 96 z "},"4":{"ha":813,"x_min":71,"x_max":711,"o":"m 157 944 l 214 873 l 157 541 l 113 507 l 71 555 l 133 925 l 157 944 m 688 935 l 711 906 l 654 545 l 602 503 l 564 545 l 610 874 l 688 935 m 176 536 l 552 536 l 593 491 l 539 441 l 166 441 l 119 493 l 176 536 m 597 475 l 640 427 l 578 56 l 550 38 l 494 105 l 551 433 l 597 475 z "},"5":{"ha":813,"x_min":33,"x_max":677,"o":"m 204 972 l 650 972 l 677 945 l 598 882 l 224 882 l 171 954 l 204 972 m 157 944 l 214 873 l 157 541 l 113 507 l 71 555 l 133 925 l 157 944 m 176 536 l 552 536 l 593 491 l 539 441 l 166 441 l 119 493 l 176 536 m 597 475 l 640 427 l 578 56 l 550 38 l 494 105 l 551 433 l 597 475 m 111 96 l 482 95 l 536 24 l 498 0 l 57 0 l 33 28 l 111 96 z "},"6":{"ha":815,"x_min":0,"x_max":640,"o":"m 157 944 l 214 873 l 157 541 l 113 507 l 71 555 l 133 925 l 157 944 m 176 536 l 552 536 l 593 491 l 539 441 l 166 441 l 119 493 l 176 536 m 109 479 l 147 432 l 98 105 l 19 43 l 0 71 l 62 446 l 109 479 m 597 475 l 640 427 l 578 56 l 550 38 l 494 105 l 551 433 l 597 475 m 111 96 l 482 95 l 536 24 l 498 0 l 57 0 l 33 28 l 111 96 z "},"7":{"ha":815,"x_min":71,"x_max":711,"o":"m 204 972 l 650 972 l 677 945 l 598 882 l 224 882 l 171 954 l 204 972 m 157 944 l 214 873 l 157 541 l 113 507 l 71 555 l 133 925 l 157 944 m 688 935 l 711 906 l 654 545 l 602 503 l 564 545 l 610 874 l 688 935 m 597 475 l 640 427 l 578 56 l 550 38 l 494 105 l 551 433 l 597 475 z "},"8":{"ha":815,"x_min":0,"x_max":711,"o":"m 204 972 l 650 972 l 677 945 l 598 882 l 224 882 l 171 954 l 204 972 m 157 944 l 214 873 l 157 541 l 113 507 l 71 555 l 133 925 l 157 944 m 688 935 l 711 906 l 654 545 l 602 503 l 564 545 l 610 874 l 688 935 m 176 536 l 552 536 l 593 491 l 539 441 l 166 441 l 119 493 l 176 536 m 109 479 l 147 432 l 98 105 l 19 43 l 0 71 l 62 446 l 109 479 m 597 475 l 640 427 l 578 56 l 550 38 l 494 105 l 551 433 l 597 475 m 111 96 l 482 95 l 536 24 l 498 0 l 57 0 l 33 28 l 111 96 z "},"9":{"ha":813,"x_min":33,"x_max":711,"o":"m 204 972 l 650 972 l 677 945 l 598 882 l 224 882 l 171 954 l 204 972 m 157 944 l 214 873 l 157 541 l 113 507 l 71 555 l 133 925 l 157 944 m 688 935 l 711 906 l 654 545 l 602 503 l 564 545 l 610 874 l 688 935 m 176 536 l 552 536 l 593 491 l 539 441 l 166 441 l 119 493 l 176 536 m 597 475 l 640 427 l 578 56 l 550 38 l 494 105 l 551 433 l 597 475 m 111 96 l 482 95 l 536 24 l 498 0 l 57 0 l 33 28 l 111 96 z "}," ":{"ha":815,"x_min":0,"x_max":0,"o":""},"!":{"ha":456,"x_min":140,"x_max":310,"o":"m 212 222 l 179 925 q 193 972 179 956 q 235 987 208 987 q 278 972 264 987 q 292 925 292 956 l 237 222 l 212 222 m 151 113 l 207 170 q 227 180 217 180 q 248 169 235 180 l 302 111 q 310 91 310 100 q 300 70 310 81 l 246 10 q 227 -3 233 -3 q 207 6 216 -3 l 147 75 q 140 92 140 83 q 151 113 140 102 z "},"\"":{"ha":817,"x_min":313,"x_max":711,"o":"m 688 935 l 711 906 l 654 545 l 602 503 l 564 545 l 610 874 l 688 935 m 313 543 l 401 543 l 456 873 l 366 873 l 313 543 z "},"#":{"ha":906,"x_min":79,"x_max":827,"o":"m 404 583 l 347 386 l 511 386 l 569 583 l 404 583 m 456 972 l 519 972 l 424 649 l 588 649 l 684 972 l 747 972 l 651 649 l 827 649 l 807 583 l 631 583 l 575 387 l 764 387 l 744 320 l 554 320 l 459 0 l 397 0 l 491 320 l 328 320 l 232 0 l 170 0 l 264 320 l 79 320 l 100 387 l 283 387 l 342 583 l 142 583 l 161 649 l 361 649 l 456 972 z "},"$":{"ha":819,"x_min":33,"x_max":677,"o":"m 204 972 l 650 972 l 677 945 l 598 882 l 224 882 l 171 954 l 204 972 m 157 944 l 214 873 l 157 541 l 113 507 l 71 555 l 133 925 l 157 944 m 552 536 l 593 491 l 539 441 l 352 441 l 365 536 l 552 536 m 166 441 l 119 493 l 176 536 l 354 536 l 340 441 l 166 441 m 597 475 l 640 427 l 578 56 l 550 38 l 494 105 l 551 433 l 597 475 m 111 96 l 482 95 l 536 24 l 498 0 l 57 0 l 33 28 l 111 96 m 313 543 l 401 543 l 456 873 l 366 873 l 313 543 m 304 434 l 391 434 l 338 104 l 248 104 l 304 434 z "},"%":{"ha":820,"x_min":71,"x_max":640,"o":"m 224 882 l 171 954 l 204 972 l 420 972 l 406 882 l 224 882 m 157 944 l 214 873 l 157 541 l 113 507 l 71 555 l 133 925 l 157 944 m 552 536 l 593 491 l 539 441 l 352 441 l 365 536 l 552 536 m 166 441 l 119 493 l 176 536 l 354 536 l 340 441 l 166 441 m 597 475 l 640 427 l 578 56 l 550 38 l 494 105 l 551 433 l 597 475 m 482 95 l 536 24 l 498 0 l 281 0 l 298 95 l 482 95 m 313 543 l 401 543 l 456 873 l 366 873 l 313 543 m 601 873 l 593 817 l 473 543 l 411 543 l 419 599 l 542 873 l 601 873 m 304 434 l 391 434 l 338 104 l 248 104 l 304 434 m 295 433 l 288 377 l 167 103 l 105 103 l 113 159 l 236 433 l 295 433 z "},"&":{"ha":815,"x_min":0,"x_max":593,"o":"m 224 882 l 171 954 l 204 972 l 420 972 l 406 882 l 224 882 m 552 536 l 593 491 l 539 441 l 352 441 l 365 536 l 552 536 m 166 441 l 119 493 l 176 536 l 354 536 l 340 441 l 166 441 m 109 479 l 147 432 l 98 105 l 19 43 l 0 71 l 62 446 l 109 479 m 482 95 l 536 24 l 498 0 l 281 0 l 298 95 l 482 95 m 57 0 l 33 28 l 111 96 l 290 95 l 273 0 l 57 0 m 221 874 l 277 874 l 315 604 l 305 542 l 245 542 l 211 815 l 221 874 m 399 433 l 455 433 l 493 163 l 484 101 l 423 101 l 389 374 l 399 433 z "},"'":{"ha":810,"x_min":313,"x_max":456,"o":"m 313 543 l 401 543 l 456 873 l 366 873 l 313 543 z "},"(":{"ha":810,"x_min":248,"x_max":677,"o":"m 650 972 l 677 945 l 598 882 l 416 882 l 431 972 l 650 972 m 482 95 l 536 24 l 498 0 l 281 0 l 298 95 l 482 95 m 313 543 l 401 543 l 456 873 l 366 873 l 313 543 m 304 434 l 391 434 l 338 104 l 248 104 l 304 434 z "},")":{"ha":815,"x_min":33,"x_max":456,"o":"m 224 882 l 171 954 l 204 972 l 420 972 l 406 882 l 224 882 m 57 0 l 33 28 l 111 96 l 290 95 l 273 0 l 57 0 m 313 543 l 401 543 l 456 873 l 366 873 l 313 543 m 304 434 l 391 434 l 338 104 l 248 104 l 304 434 z "},"*":{"ha":817,"x_min":105,"x_max":601,"o":"m 552 536 l 593 491 l 539 441 l 352 441 l 365 536 l 552 536 m 166 441 l 119 493 l 176 536 l 354 536 l 340 441 l 166 441 m 313 543 l 401 543 l 456 873 l 366 873 l 313 543 m 601 873 l 593 817 l 473 543 l 411 543 l 419 599 l 542 873 l 601 873 m 221 874 l 277 874 l 315 604 l 305 542 l 245 542 l 211 815 l 221 874 m 304 434 l 391 434 l 338 104 l 248 104 l 304 434 m 399 433 l 455 433 l 493 163 l 484 101 l 423 101 l 389 374 l 399 433 m 295 433 l 288 377 l 167 103 l 105 103 l 113 159 l 236 433 l 295 433 z "},"+":{"ha":820,"x_min":119,"x_max":593,"o":"m 552 536 l 593 491 l 539 441 l 352 441 l 365 536 l 552 536 m 166 441 l 119 493 l 176 536 l 354 536 l 340 441 l 166 441 m 313 543 l 401 543 l 456 873 l 366 873 l 313 543 m 304 434 l 391 434 l 338 104 l 248 104 l 304 434 z "},",":{"ha":814,"x_min":105,"x_max":295,"o":"m 295 433 l 288 377 l 167 103 l 105 103 l 113 159 l 236 433 l 295 433 z "},"-":{"ha":817,"x_min":119,"x_max":593,"o":"m 552 536 l 593 491 l 539 441 l 352 441 l 365 536 l 552 536 m 166 441 l 119 493 l 176 536 l 354 536 l 340 441 l 166 441 z "},".":{"ha":378,"x_min":87,"x_max":257,"o":"m 98 113 l 154 170 q 174 180 164 180 q 195 169 182 180 l 249 111 q 257 91 257 100 q 248 70 257 81 l 193 10 q 174 -3 180 -3 q 154 6 163 -3 l 94 75 q 87 92 87 83 q 98 113 87 102 z "},"/":{"ha":814,"x_min":105,"x_max":601,"o":"m 601 873 l 593 817 l 473 543 l 411 543 l 419 599 l 542 873 l 601 873 m 295 433 l 288 377 l 167 103 l 105 103 l 113 159 l 236 433 l 295 433 z "},":":{"ha":378,"x_min":87,"x_max":257,"o":"m 98 113 l 154 170 q 174 180 164 180 q 195 169 182 180 l 249 111 q 257 91 257 100 q 248 70 257 81 l 193 10 q 174 -3 180 -3 q 154 6 163 -3 l 94 75 q 87 92 87 83 q 98 113 87 102 m 98 583 l 154 640 q 174 650 164 650 q 195 639 182 650 l 249 581 q 257 561 257 570 q 248 540 257 551 l 193 480 q 174 467 180 467 q 154 476 163 467 l 94 545 q 87 562 87 553 q 98 583 87 572 z "},";":{"ha":378,"x_min":81,"x_max":257,"o":"m 98 583 l 154 640 q 174 649 164 649 q 195 638 182 649 l 249 580 q 257 560 257 569 q 248 539 257 550 l 193 479 q 174 466 180 466 q 154 475 163 466 l 94 544 q 87 562 87 553 q 98 583 87 572 m 161 175 q 221 131 191 175 q 252 28 252 86 q 203 -126 252 -46 q 109 -205 155 -205 l 109 -176 q 168 -47 159 -147 q 81 62 168 33 l 81 90 l 161 175 z "},"<":{"ha":810,"x_min":389,"x_max":601,"o":"m 601 873 l 593 817 l 473 543 l 411 543 l 419 599 l 542 873 l 601 873 m 399 433 l 455 433 l 493 163 l 484 101 l 423 101 l 389 374 l 399 433 z "},"=":{"ha":815,"x_min":33,"x_max":593,"o":"m 552 536 l 593 491 l 539 441 l 352 441 l 365 536 l 552 536 m 166 441 l 119 493 l 176 536 l 354 536 l 340 441 l 166 441 m 482 95 l 536 24 l 498 0 l 281 0 l 298 95 l 482 95 m 57 0 l 33 28 l 111 96 l 290 95 l 273 0 l 57 0 z "},">":{"ha":815,"x_min":105,"x_max":315,"o":"m 221 874 l 277 874 l 315 604 l 305 542 l 245 542 l 211 815 l 221 874 m 295 433 l 288 377 l 167 103 l 105 103 l 113 159 l 236 433 l 295 433 z "},"?":{"ha":815,"x_min":171,"x_max":711,"o":"m 650 972 l 677 945 l 598 882 l 416 882 l 431 972 l 650 972 m 224 882 l 171 954 l 204 972 l 420 972 l 406 882 l 224 882 m 688 935 l 711 906 l 654 545 l 602 503 l 564 545 l 610 874 l 688 935 m 552 536 l 593 491 l 539 441 l 352 441 l 365 536 l 552 536 m 304 434 l 391 434 l 338 104 l 248 104 l 304 434 z "},"@":{"ha":815,"x_min":0,"x_max":711,"o":"m 650 972 l 677 945 l 598 882 l 416 882 l 431 972 l 650 972 m 224 882 l 171 954 l 204 972 l 420 972 l 406 882 l 224 882 m 688 935 l 711 906 l 654 545 l 602 503 l 564 545 l 610 874 l 688 935 m 166 441 l 119 493 l 176 536 l 354 536 l 340 441 l 166 441 m 109 479 l 147 432 l 98 105 l 19 43 l 0 71 l 62 446 l 109 479 m 597 475 l 640 427 l 578 56 l 550 38 l 494 105 l 551 433 l 597 475 m 482 95 l 536 24 l 498 0 l 281 0 l 298 95 l 482 95 m 57 0 l 33 28 l 111 96 l 290 95 l 273 0 l 57 0 m 304 434 l 391 434 l 338 104 l 248 104 l 304 434 z "},"A":{"ha":814,"x_min":0,"x_max":711,"o":"m 204 972 l 650 972 l 677 945 l 598 882 l 224 882 l 171 954 l 204 972 m 157 944 l 214 873 l 157 541 l 113 507 l 71 555 l 133 925 l 157 944 m 688 935 l 711 906 l 654 545 l 602 503 l 564 545 l 610 874 l 688 935 m 552 536 l 593 491 l 539 441 l 352 441 l 365 536 l 552 536 m 166 441 l 119 493 l 176 536 l 354 536 l 340 441 l 166 441 m 109 479 l 147 432 l 98 105 l 19 43 l 0 71 l 62 446 l 109 479 m 597 475 l 640 427 l 578 56 l 550 38 l 494 105 l 551 433 l 597 475 z "},"B":{"ha":815,"x_min":33,"x_max":711,"o":"m 204 972 l 650 972 l 677 945 l 598 882 l 224 882 l 171 954 l 204 972 m 688 935 l 711 906 l 654 545 l 602 503 l 564 545 l 610 874 l 688 935 m 552 536 l 593 491 l 539 441 l 352 441 l 365 536 l 552 536 m 597 475 l 640 427 l 578 56 l 550 38 l 494 105 l 551 433 l 597 475 m 111 96 l 482 95 l 536 24 l 498 0 l 57 0 l 33 28 l 111 96 m 313 543 l 401 543 l 456 873 l 366 873 l 313 543 m 304 434 l 391 434 l 338 104 l 248 104 l 304 434 z "},"C":{"ha":814,"x_min":0,"x_max":677,"o":"m 204 972 l 650 972 l 677 945 l 598 882 l 224 882 l 171 954 l 204 972 m 157 944 l 214 873 l 157 541 l 113 507 l 71 555 l 133 925 l 157 944 m 109 479 l 147 432 l 98 105 l 19 43 l 0 71 l 62 446 l 109 479 m 111 96 l 482 95 l 536 24 l 498 0 l 57 0 l 33 28 l 111 96 z "},"D":{"ha":814,"x_min":33,"x_max":711,"o":"m 204 972 l 650 972 l 677 945 l 598 882 l 224 882 l 171 954 l 204 972 m 688 935 l 711 906 l 654 545 l 602 503 l 564 545 l 610 874 l 688 935 m 597 475 l 640 427 l 578 56 l 550 38 l 494 105 l 551 433 l 597 475 m 111 96 l 482 95 l 536 24 l 498 0 l 57 0 l 33 28 l 111 96 m 313 543 l 401 543 l 456 873 l 366 873 l 313 543 m 304 434 l 391 434 l 338 104 l 248 104 l 304 434 z "},"E":{"ha":817,"x_min":0,"x_max":677,"o":"m 204 972 l 650 972 l 677 945 l 598 882 l 224 882 l 171 954 l 204 972 m 157 944 l 214 873 l 157 541 l 113 507 l 71 555 l 133 925 l 157 944 m 552 536 l 593 491 l 539 441 l 352 441 l 365 536 l 552 536 m 166 441 l 119 493 l 176 536 l 354 536 l 340 441 l 166 441 m 109 479 l 147 432 l 98 105 l 19 43 l 0 71 l 62 446 l 109 479 m 111 96 l 482 95 l 536 24 l 498 0 l 57 0 l 33 28 l 111 96 z "},"F":{"ha":817,"x_min":0,"x_max":677,"o":"m 204 972 l 650 972 l 677 945 l 598 882 l 224 882 l 171 954 l 204 972 m 157 944 l 214 873 l 157 541 l 113 507 l 71 555 l 133 925 l 157 944 m 552 536 l 593 491 l 539 441 l 352 441 l 365 536 l 552 536 m 166 441 l 119 493 l 176 536 l 354 536 l 340 441 l 166 441 m 109 479 l 147 432 l 98 105 l 19 43 l 0 71 l 62 446 l 109 479 z "},"G":{"ha":815,"x_min":0,"x_max":677,"o":"m 204 972 l 650 972 l 677 945 l 598 882 l 224 882 l 171 954 l 204 972 m 157 944 l 214 873 l 157 541 l 113 507 l 71 555 l 133 925 l 157 944 m 552 536 l 593 491 l 539 441 l 352 441 l 365 536 l 552 536 m 109 479 l 147 432 l 98 105 l 19 43 l 0 71 l 62 446 l 109 479 m 597 475 l 640 427 l 578 56 l 550 38 l 494 105 l 551 433 l 597 475 m 111 96 l 482 95 l 536 24 l 498 0 l 57 0 l 33 28 l 111 96 z "},"H":{"ha":817,"x_min":0,"x_max":711,"o":"m 157 944 l 214 873 l 157 541 l 113 507 l 71 555 l 133 925 l 157 944 m 688 935 l 711 906 l 654 545 l 602 503 l 564 545 l 610 874 l 688 935 m 552 536 l 593 491 l 539 441 l 352 441 l 365 536 l 552 536 m 166 441 l 119 493 l 176 536 l 354 536 l 340 441 l 166 441 m 109 479 l 147 432 l 98 105 l 19 43 l 0 71 l 62 446 l 109 479 m 597 475 l 640 427 l 578 56 l 550 38 l 494 105 l 551 433 l 597 475 z "},"I":{"ha":815,"x_min":33,"x_max":677,"o":"m 204 972 l 650 972 l 677 945 l 598 882 l 224 882 l 171 954 l 204 972 m 111 96 l 482 95 l 536 24 l 498 0 l 57 0 l 33 28 l 111 96 m 313 543 l 401 543 l 456 873 l 366 873 l 313 543 m 304 434 l 391 434 l 338 104 l 248 104 l 304 434 z "},"J":{"ha":815,"x_min":0,"x_max":711,"o":"m 688 935 l 711 906 l 654 545 l 602 503 l 564 545 l 610 874 l 688 935 m 109 479 l 147 432 l 98 105 l 19 43 l 0 71 l 62 446 l 109 479 m 597 475 l 640 427 l 578 56 l 550 38 l 494 105 l 551 433 l 597 475 m 111 96 l 482 95 l 536 24 l 498 0 l 57 0 l 33 28 l 111 96 z "},"K":{"ha":817,"x_min":0,"x_max":601,"o":"m 157 944 l 214 873 l 157 541 l 113 507 l 71 555 l 133 925 l 157 944 m 166 441 l 119 493 l 176 536 l 354 536 l 340 441 l 166 441 m 109 479 l 147 432 l 98 105 l 19 43 l 0 71 l 62 446 l 109 479 m 601 873 l 593 817 l 473 543 l 411 543 l 419 599 l 542 873 l 601 873 m 399 433 l 455 433 l 493 163 l 484 101 l 423 101 l 389 374 l 399 433 z "},"L":{"ha":815,"x_min":0,"x_max":536,"o":"m 157 944 l 214 873 l 157 541 l 113 507 l 71 555 l 133 925 l 157 944 m 109 479 l 147 432 l 98 105 l 19 43 l 0 71 l 62 446 l 109 479 m 111 96 l 482 95 l 536 24 l 498 0 l 57 0 l 33 28 l 111 96 z "},"M":{"ha":814,"x_min":0,"x_max":711,"o":"m 157 944 l 214 873 l 157 541 l 113 507 l 71 555 l 133 925 l 157 944 m 688 935 l 711 906 l 654 545 l 602 503 l 564 545 l 610 874 l 688 935 m 109 479 l 147 432 l 98 105 l 19 43 l 0 71 l 62 446 l 109 479 m 597 475 l 640 427 l 578 56 l 550 38 l 494 105 l 551 433 l 597 475 m 601 873 l 593 817 l 473 543 l 411 543 l 419 599 l 542 873 l 601 873 m 221 874 l 277 874 l 315 604 l 305 542 l 245 542 l 211 815 l 221 874 m 304 434 l 391 434 l 338 104 l 248 104 l 304 434 z "},"N":{"ha":817,"x_min":0,"x_max":711,"o":"m 157 944 l 214 873 l 157 541 l 113 507 l 71 555 l 133 925 l 157 944 m 688 935 l 711 906 l 654 545 l 602 503 l 564 545 l 610 874 l 688 935 m 109 479 l 147 432 l 98 105 l 19 43 l 0 71 l 62 446 l 109 479 m 597 475 l 640 427 l 578 56 l 550 38 l 494 105 l 551 433 l 597 475 m 221 874 l 277 874 l 315 604 l 305 542 l 245 542 l 211 815 l 221 874 m 399 433 l 455 433 l 493 163 l 484 101 l 423 101 l 389 374 l 399 433 z "},"O":{"ha":817,"x_min":0,"x_max":711,"o":"m 204 972 l 650 972 l 677 945 l 598 882 l 224 882 l 171 954 l 204 972 m 157 944 l 214 873 l 157 541 l 113 507 l 71 555 l 133 925 l 157 944 m 688 935 l 711 906 l 654 545 l 602 503 l 564 545 l 610 874 l 688 935 m 109 479 l 147 432 l 98 105 l 19 43 l 0 71 l 62 446 l 109 479 m 597 475 l 640 427 l 578 56 l 550 38 l 494 105 l 551 433 l 597 475 m 111 96 l 482 95 l 536 24 l 498 0 l 57 0 l 33 28 l 111 96 z "},"P":{"ha":815,"x_min":0,"x_max":711,"o":"m 204 972 l 650 972 l 677 945 l 598 882 l 224 882 l 171 954 l 204 972 m 157 944 l 214 873 l 157 541 l 113 507 l 71 555 l 133 925 l 157 944 m 688 935 l 711 906 l 654 545 l 602 503 l 564 545 l 610 874 l 688 935 m 552 536 l 593 491 l 539 441 l 352 441 l 365 536 l 552 536 m 166 441 l 119 493 l 176 536 l 354 536 l 340 441 l 166 441 m 109 479 l 147 432 l 98 105 l 19 43 l 0 71 l 62 446 l 109 479 z "},"Q":{"ha":817,"x_min":0,"x_max":711,"o":"m 204 972 l 650 972 l 677 945 l 598 882 l 224 882 l 171 954 l 204 972 m 157 944 l 214 873 l 157 541 l 113 507 l 71 555 l 133 925 l 157 944 m 688 935 l 711 906 l 654 545 l 602 503 l 564 545 l 610 874 l 688 935 m 109 479 l 147 432 l 98 105 l 19 43 l 0 71 l 62 446 l 109 479 m 597 475 l 640 427 l 578 56 l 550 38 l 494 105 l 551 433 l 597 475 m 111 96 l 482 95 l 536 24 l 498 0 l 57 0 l 33 28 l 111 96 m 399 433 l 455 433 l 493 163 l 484 101 l 423 101 l 389 374 l 399 433 z "},"R":{"ha":817,"x_min":0,"x_max":711,"o":"m 204 972 l 650 972 l 677 945 l 598 882 l 224 882 l 171 954 l 204 972 m 157 944 l 214 873 l 157 541 l 113 507 l 71 555 l 133 925 l 157 944 m 688 935 l 711 906 l 654 545 l 602 503 l 564 545 l 610 874 l 688 935 m 552 536 l 593 491 l 539 441 l 352 441 l 365 536 l 552 536 m 166 441 l 119 493 l 176 536 l 354 536 l 340 441 l 166 441 m 109 479 l 147 432 l 98 105 l 19 43 l 0 71 l 62 446 l 109 479 m 399 433 l 455 433 l 493 163 l 484 101 l 423 101 l 389 374 l 399 433 z "},"S":{"ha":817,"x_min":33,"x_max":677,"o":"m 204 972 l 650 972 l 677 945 l 598 882 l 224 882 l 171 954 l 204 972 m 157 944 l 214 873 l 157 541 l 113 507 l 71 555 l 133 925 l 157 944 m 552 536 l 593 491 l 539 441 l 352 441 l 365 536 l 552 536 m 166 441 l 119 493 l 176 536 l 354 536 l 340 441 l 166 441 m 597 475 l 640 427 l 578 56 l 550 38 l 494 105 l 551 433 l 597 475 m 111 96 l 482 95 l 536 24 l 498 0 l 57 0 l 33 28 l 111 96 z "},"T":{"ha":815,"x_min":171,"x_max":677,"o":"m 204 972 l 650 972 l 677 945 l 598 882 l 224 882 l 171 954 l 204 972 m 313 543 l 401 543 l 456 873 l 366 873 l 313 543 m 304 434 l 391 434 l 338 104 l 248 104 l 304 434 z "},"U":{"ha":815,"x_min":0,"x_max":711,"o":"m 157 944 l 214 873 l 157 541 l 113 507 l 71 555 l 133 925 l 157 944 m 688 935 l 711 906 l 654 545 l 602 503 l 564 545 l 610 874 l 688 935 m 109 479 l 147 432 l 98 105 l 19 43 l 0 71 l 62 446 l 109 479 m 597 475 l 640 427 l 578 56 l 550 38 l 494 105 l 551 433 l 597 475 m 111 96 l 482 95 l 536 24 l 498 0 l 57 0 l 33 28 l 111 96 z "},"V":{"ha":815,"x_min":211,"x_max":711,"o":"m 688 935 l 711 906 l 654 545 l 602 503 l 564 545 l 610 874 l 688 935 m 597 475 l 640 427 l 578 56 l 550 38 l 494 105 l 551 433 l 597 475 m 221 874 l 277 874 l 315 604 l 305 542 l 245 542 l 211 815 l 221 874 m 399 433 l 455 433 l 493 163 l 484 101 l 423 101 l 389 374 l 399 433 z "},"W":{"ha":817,"x_min":0,"x_max":711,"o":"m 157 944 l 214 873 l 157 541 l 113 507 l 71 555 l 133 925 l 157 944 m 688 935 l 711 906 l 654 545 l 602 503 l 564 545 l 610 874 l 688 935 m 109 479 l 147 432 l 98 105 l 19 43 l 0 71 l 62 446 l 109 479 m 597 475 l 640 427 l 578 56 l 550 38 l 494 105 l 551 433 l 597 475 m 313 543 l 401 543 l 456 873 l 366 873 l 313 543 m 399 433 l 455 433 l 493 163 l 484 101 l 423 101 l 389 374 l 399 433 m 295 433 l 288 377 l 167 103 l 105 103 l 113 159 l 236 433 l 295 433 z "},"X":{"ha":814,"x_min":105,"x_max":601,"o":"m 601 873 l 593 817 l 473 543 l 411 543 l 419 599 l 542 873 l 601 873 m 221 874 l 277 874 l 315 604 l 305 542 l 245 542 l 211 815 l 221 874 m 399 433 l 455 433 l 493 163 l 484 101 l 423 101 l 389 374 l 399 433 m 295 433 l 288 377 l 167 103 l 105 103 l 113 159 l 236 433 l 295 433 z "},"Y":{"ha":815,"x_min":71,"x_max":711,"o":"m 157 944 l 214 873 l 157 541 l 113 507 l 71 555 l 133 925 l 157 944 m 688 935 l 711 906 l 654 545 l 602 503 l 564 545 l 610 874 l 688 935 m 552 536 l 593 491 l 539 441 l 352 441 l 365 536 l 552 536 m 166 441 l 119 493 l 176 536 l 354 536 l 340 441 l 166 441 m 304 434 l 391 434 l 338 104 l 248 104 l 304 434 z "},"Z":{"ha":814,"x_min":33,"x_max":677,"o":"m 204 972 l 650 972 l 677 945 l 598 882 l 224 882 l 171 954 l 204 972 m 111 96 l 482 95 l 536 24 l 498 0 l 57 0 l 33 28 l 111 96 m 601 873 l 593 817 l 473 543 l 411 543 l 419 599 l 542 873 l 601 873 m 295 433 l 288 377 l 167 103 l 105 103 l 113 159 l 236 433 l 295 433 z "},"[":{"ha":815,"x_min":0,"x_max":420,"o":"m 224 882 l 171 954 l 204 972 l 420 972 l 406 882 l 224 882 m 157 944 l 214 873 l 157 541 l 113 507 l 71 555 l 133 925 l 157 944 m 109 479 l 147 432 l 98 105 l 19 43 l 0 71 l 62 446 l 109 479 m 57 0 l 33 28 l 111 96 l 290 95 l 273 0 l 57 0 z "},"\\":{"ha":814,"x_min":211,"x_max":493,"o":"m 221 874 l 277 874 l 315 604 l 305 542 l 245 542 l 211 815 l 221 874 m 399 433 l 455 433 l 493 163 l 484 101 l 423 101 l 389 374 l 399 433 z "},"]":{"ha":815,"x_min":281,"x_max":711,"o":"m 650 972 l 677 945 l 598 882 l 416 882 l 431 972 l 650 972 m 688 935 l 711 906 l 654 545 l 602 503 l 564 545 l 610 874 l 688 935 m 597 475 l 640 427 l 578 56 l 550 38 l 494 105 l 551 433 l 597 475 m 482 95 l 536 24 l 498 0 l 281 0 l 298 95 l 482 95 z "},"^":{"ha":688,"x_min":0,"x_max":0,"o":""},"_":{"ha":815,"x_min":33,"x_max":536,"o":"m 482 95 l 536 24 l 498 0 l 281 0 l 298 95 l 482 95 m 57 0 l 33 28 l 111 96 l 290 95 l 273 0 l 57 0 z "},"`":{"ha":815,"x_min":211,"x_max":315,"o":"m 221 874 l 277 874 l 315 604 l 305 542 l 245 542 l 211 815 l 221 874 z "},"a":{"ha":814,"x_min":0,"x_max":711,"o":"m 204 972 l 650 972 l 677 945 l 598 882 l 224 882 l 171 954 l 204 972 m 688 935 l 711 906 l 654 545 l 602 503 l 564 545 l 610 874 l 688 935 m 552 536 l 593 491 l 539 441 l 352 441 l 365 536 l 552 536 m 166 441 l 119 493 l 176 536 l 354 536 l 340 441 l 166 441 m 109 479 l 147 432 l 98 105 l 19 43 l 0 71 l 62 446 l 109 479 m 597 475 l 640 427 l 578 56 l 550 38 l 494 105 l 551 433 l 597 475 m 111 96 l 482 95 l 536 24 l 498 0 l 57 0 l 33 28 l 111 96 z "},"b":{"ha":815,"x_min":0,"x_max":640,"o":"m 157 944 l 214 873 l 157 541 l 113 507 l 71 555 l 133 925 l 157 944 m 552 536 l 593 491 l 539 441 l 352 441 l 365 536 l 552 536 m 166 441 l 119 493 l 176 536 l 354 536 l 340 441 l 166 441 m 109 479 l 147 432 l 98 105 l 19 43 l 0 71 l 62 446 l 109 479 m 597 475 l 640 427 l 578 56 l 550 38 l 494 105 l 551 433 l 597 475 m 111 96 l 482 95 l 536 24 l 498 0 l 57 0 l 33 28 l 111 96 z "},"c":{"ha":815,"x_min":0,"x_max":593,"o":"m 552 536 l 593 491 l 539 441 l 352 441 l 365 536 l 552 536 m 166 441 l 119 493 l 176 536 l 354 536 l 340 441 l 166 441 m 109 479 l 147 432 l 98 105 l 19 43 l 0 71 l 62 446 l 109 479 m 111 96 l 482 95 l 536 24 l 498 0 l 57 0 l 33 28 l 111 96 z "},"d":{"ha":817,"x_min":0,"x_max":711,"o":"m 688 935 l 711 906 l 654 545 l 602 503 l 564 545 l 610 874 l 688 935 m 552 536 l 593 491 l 539 441 l 352 441 l 365 536 l 552 536 m 166 441 l 119 493 l 176 536 l 354 536 l 340 441 l 166 441 m 109 479 l 147 432 l 98 105 l 19 43 l 0 71 l 62 446 l 109 479 m 597 475 l 640 427 l 578 56 l 550 38 l 494 105 l 551 433 l 597 475 m 111 96 l 482 95 l 536 24 l 498 0 l 57 0 l 33 28 l 111 96 z "},"e":{"ha":815,"x_min":0,"x_max":711,"o":"m 204 972 l 650 972 l 677 945 l 598 882 l 224 882 l 171 954 l 204 972 m 157 944 l 214 873 l 157 541 l 113 507 l 71 555 l 133 925 l 157 944 m 688 935 l 711 906 l 654 545 l 602 503 l 564 545 l 610 874 l 688 935 m 552 536 l 593 491 l 539 441 l 352 441 l 365 536 l 552 536 m 166 441 l 119 493 l 176 536 l 354 536 l 340 441 l 166 441 m 109 479 l 147 432 l 98 105 l 19 43 l 0 71 l 62 446 l 109 479 m 111 96 l 482 95 l 536 24 l 498 0 l 57 0 l 33 28 l 111 96 z "},"f":{"ha":817,"x_min":0,"x_max":677,"o":"m 204 972 l 650 972 l 677 945 l 598 882 l 224 882 l 171 954 l 204 972 m 157 944 l 214 873 l 157 541 l 113 507 l 71 555 l 133 925 l 157 944 m 552 536 l 593 491 l 539 441 l 352 441 l 365 536 l 552 536 m 166 441 l 119 493 l 176 536 l 354 536 l 340 441 l 166 441 m 109 479 l 147 432 l 98 105 l 19 43 l 0 71 l 62 446 l 109 479 z "},"g":{"ha":815,"x_min":33,"x_max":711,"o":"m 204 972 l 650 972 l 677 945 l 598 882 l 224 882 l 171 954 l 204 972 m 157 944 l 214 873 l 157 541 l 113 507 l 71 555 l 133 925 l 157 944 m 688 935 l 711 906 l 654 545 l 602 503 l 564 545 l 610 874 l 688 935 m 552 536 l 593 491 l 539 441 l 352 441 l 365 536 l 552 536 m 166 441 l 119 493 l 176 536 l 354 536 l 340 441 l 166 441 m 597 475 l 640 427 l 578 56 l 550 38 l 494 105 l 551 433 l 597 475 m 111 96 l 482 95 l 536 24 l 498 0 l 57 0 l 33 28 l 111 96 z "},"h":{"ha":815,"x_min":0,"x_max":640,"o":"m 157 944 l 214 873 l 157 541 l 113 507 l 71 555 l 133 925 l 157 944 m 552 536 l 593 491 l 539 441 l 352 441 l 365 536 l 552 536 m 166 441 l 119 493 l 176 536 l 354 536 l 340 441 l 166 441 m 109 479 l 147 432 l 98 105 l 19 43 l 0 71 l 62 446 l 109 479 m 597 475 l 640 427 l 578 56 l 550 38 l 494 105 l 551 433 l 597 475 z "},"i":{"ha":814,"x_min":0,"x_max":214,"o":"m 157 944 l 214 873 l 157 541 l 113 507 l 71 555 l 133 925 l 157 944 m 109 479 l 147 432 l 98 105 l 19 43 l 0 71 l 62 446 l 109 479 z "},"j":{"ha":815,"x_min":0,"x_max":711,"o":"m 688 935 l 711 906 l 654 545 l 602 503 l 564 545 l 610 874 l 688 935 m 109 479 l 147 432 l 98 105 l 19 43 l 0 71 l 62 446 l 109 479 m 597 475 l 640 427 l 578 56 l 550 38 l 494 105 l 551 433 l 597 475 m 111 96 l 482 95 l 536 24 l 498 0 l 57 0 l 33 28 l 111 96 z "},"k":{"ha":817,"x_min":0,"x_max":601,"o":"m 157 944 l 214 873 l 157 541 l 113 507 l 71 555 l 133 925 l 157 944 m 166 441 l 119 493 l 176 536 l 354 536 l 340 441 l 166 441 m 109 479 l 147 432 l 98 105 l 19 43 l 0 71 l 62 446 l 109 479 m 601 873 l 593 817 l 473 543 l 411 543 l 419 599 l 542 873 l 601 873 m 399 433 l 455 433 l 493 163 l 484 101 l 423 101 l 389 374 l 399 433 z "},"l":{"ha":815,"x_min":0,"x_max":536,"o":"m 157 944 l 214 873 l 157 541 l 113 507 l 71 555 l 133 925 l 157 944 m 109 479 l 147 432 l 98 105 l 19 43 l 0 71 l 62 446 l 109 479 m 111 96 l 482 95 l 536 24 l 498 0 l 57 0 l 33 28 l 111 96 z "},"m":{"ha":815,"x_min":0,"x_max":640,"o":"m 552 536 l 593 491 l 539 441 l 352 441 l 365 536 l 552 536 m 166 441 l 119 493 l 176 536 l 354 536 l 340 441 l 166 441 m 109 479 l 147 432 l 98 105 l 19 43 l 0 71 l 62 446 l 109 479 m 597 475 l 640 427 l 578 56 l 550 38 l 494 105 l 551 433 l 597 475 m 304 434 l 391 434 l 338 104 l 248 104 l 304 434 z "},"n":{"ha":815,"x_min":0,"x_max":640,"o":"m 552 536 l 593 491 l 539 441 l 352 441 l 365 536 l 552 536 m 166 441 l 119 493 l 176 536 l 354 536 l 340 441 l 166 441 m 109 479 l 147 432 l 98 105 l 19 43 l 0 71 l 62 446 l 109 479 m 597 475 l 640 427 l 578 56 l 550 38 l 494 105 l 551 433 l 597 475 z "},"o":{"ha":815,"x_min":0,"x_max":640,"o":"m 552 536 l 593 491 l 539 441 l 352 441 l 365 536 l 552 536 m 166 441 l 119 493 l 176 536 l 354 536 l 340 441 l 166 441 m 109 479 l 147 432 l 98 105 l 19 43 l 0 71 l 62 446 l 109 479 m 597 475 l 640 427 l 578 56 l 550 38 l 494 105 l 551 433 l 597 475 m 111 96 l 482 95 l 536 24 l 498 0 l 57 0 l 33 28 l 111 96 z "},"p":{"ha":817,"x_min":0,"x_max":711,"o":"m 204 972 l 650 972 l 677 945 l 598 882 l 224 882 l 171 954 l 204 972 m 157 944 l 214 873 l 157 541 l 113 507 l 71 555 l 133 925 l 157 944 m 688 935 l 711 906 l 654 545 l 602 503 l 564 545 l 610 874 l 688 935 m 552 536 l 593 491 l 539 441 l 352 441 l 365 536 l 552 536 m 166 441 l 119 493 l 176 536 l 354 536 l 340 441 l 166 441 m 109 479 l 147 432 l 98 105 l 19 43 l 0 71 l 62 446 l 109 479 z "},"q":{"ha":815,"x_min":71,"x_max":711,"o":"m 204 972 l 650 972 l 677 945 l 598 882 l 224 882 l 171 954 l 204 972 m 157 944 l 214 873 l 157 541 l 113 507 l 71 555 l 133 925 l 157 944 m 688 935 l 711 906 l 654 545 l 602 503 l 564 545 l 610 874 l 688 935 m 552 536 l 593 491 l 539 441 l 352 441 l 365 536 l 552 536 m 166 441 l 119 493 l 176 536 l 354 536 l 340 441 l 166 441 m 597 475 l 640 427 l 578 56 l 550 38 l 494 105 l 551 433 l 597 475 z "},"r":{"ha":817,"x_min":0,"x_max":593,"o":"m 552 536 l 593 491 l 539 441 l 352 441 l 365 536 l 552 536 m 166 441 l 119 493 l 176 536 l 354 536 l 340 441 l 166 441 m 109 479 l 147 432 l 98 105 l 19 43 l 0 71 l 62 446 l 109 479 z "},"s":{"ha":817,"x_min":33,"x_max":677,"o":"m 204 972 l 650 972 l 677 945 l 598 882 l 224 882 l 171 954 l 204 972 m 157 944 l 214 873 l 157 541 l 113 507 l 71 555 l 133 925 l 157 944 m 552 536 l 593 491 l 539 441 l 352 441 l 365 536 l 552 536 m 166 441 l 119 493 l 176 536 l 354 536 l 340 441 l 166 441 m 597 475 l 640 427 l 578 56 l 550 38 l 494 105 l 551 433 l 597 475 m 111 96 l 482 95 l 536 24 l 498 0 l 57 0 l 33 28 l 111 96 z "},"t":{"ha":817,"x_min":0,"x_max":593,"o":"m 157 944 l 214 873 l 157 541 l 113 507 l 71 555 l 133 925 l 157 944 m 552 536 l 593 491 l 539 441 l 352 441 l 365 536 l 552 536 m 166 441 l 119 493 l 176 536 l 354 536 l 340 441 l 166 441 m 109 479 l 147 432 l 98 105 l 19 43 l 0 71 l 62 446 l 109 479 m 111 96 l 482 95 l 536 24 l 498 0 l 57 0 l 33 28 l 111 96 z "},"u":{"ha":815,"x_min":0,"x_max":640,"o":"m 109 479 l 147 432 l 98 105 l 19 43 l 0 71 l 62 446 l 109 479 m 597 475 l 640 427 l 578 56 l 550 38 l 494 105 l 551 433 l 597 475 m 111 96 l 482 95 l 536 24 l 498 0 l 57 0 l 33 28 l 111 96 z "},"v":{"ha":810,"x_min":211,"x_max":711,"o":"m 688 935 l 711 906 l 654 545 l 602 503 l 564 545 l 610 874 l 688 935 m 597 475 l 640 427 l 578 56 l 550 38 l 494 105 l 551 433 l 597 475 m 221 874 l 277 874 l 315 604 l 305 542 l 245 542 l 211 815 l 221 874 m 399 433 l 455 433 l 493 163 l 484 101 l 423 101 l 389 374 l 399 433 z "},"w":{"ha":815,"x_min":0,"x_max":640,"o":"m 109 479 l 147 432 l 98 105 l 19 43 l 0 71 l 62 446 l 109 479 m 597 475 l 640 427 l 578 56 l 550 38 l 494 105 l 551 433 l 597 475 m 111 96 l 482 95 l 536 24 l 498 0 l 57 0 l 33 28 l 111 96 m 304 434 l 391 434 l 338 104 l 248 104 l 304 434 z "},"x":{"ha":814,"x_min":105,"x_max":601,"o":"m 601 873 l 593 817 l 473 543 l 411 543 l 419 599 l 542 873 l 601 873 m 221 874 l 277 874 l 315 604 l 305 542 l 245 542 l 211 815 l 221 874 m 399 433 l 455 433 l 493 163 l 484 101 l 423 101 l 389 374 l 399 433 m 295 433 l 288 377 l 167 103 l 105 103 l 113 159 l 236 433 l 295 433 z "},"y":{"ha":819,"x_min":33,"x_max":711,"o":"m 157 944 l 214 873 l 157 541 l 113 507 l 71 555 l 133 925 l 157 944 m 688 935 l 711 906 l 654 545 l 602 503 l 564 545 l 610 874 l 688 935 m 552 536 l 593 491 l 539 441 l 352 441 l 365 536 l 552 536 m 166 441 l 119 493 l 176 536 l 354 536 l 340 441 l 166 441 m 597 475 l 640 427 l 578 56 l 550 38 l 494 105 l 551 433 l 597 475 m 111 96 l 482 95 l 536 24 l 498 0 l 57 0 l 33 28 l 111 96 z "},"z":{"ha":814,"x_min":33,"x_max":677,"o":"m 204 972 l 650 972 l 677 945 l 598 882 l 224 882 l 171 954 l 204 972 m 111 96 l 482 95 l 536 24 l 498 0 l 57 0 l 33 28 l 111 96 m 601 873 l 593 817 l 473 543 l 411 543 l 419 599 l 542 873 l 601 873 m 295 433 l 288 377 l 167 103 l 105 103 l 113 159 l 236 433 l 295 433 z "},"{":{"ha":815,"x_min":119,"x_max":677,"o":"m 650 972 l 677 945 l 598 882 l 416 882 l 431 972 l 650 972 m 166 441 l 119 493 l 176 536 l 354 536 l 340 441 l 166 441 m 482 95 l 536 24 l 498 0 l 281 0 l 298 95 l 482 95 m 313 543 l 401 543 l 456 873 l 366 873 l 313 543 m 304 434 l 391 434 l 338 104 l 248 104 l 304 434 z "},"|":{"ha":688,"x_min":290,"x_max":398,"o":"m 290 1069 l 398 1069 l 398 -283 l 290 -283 l 290 1069 z "},"}":{"ha":815,"x_min":33,"x_max":593,"o":"m 224 882 l 171 954 l 204 972 l 420 972 l 406 882 l 224 882 m 552 536 l 593 491 l 539 441 l 352 441 l 365 536 l 552 536 m 57 0 l 33 28 l 111 96 l 290 95 l 273 0 l 57 0 m 313 543 l 401 543 l 456 873 l 366 873 l 313 543 m 304 434 l 391 434 l 338 104 l 248 104 l 304 434 z "},"~":{"ha":688,"x_min":64,"x_max":626,"o":"m 626 595 l 626 490 q 543 424 583 441 q 465 406 503 406 q 344 439 424 406 q 224 472 264 472 q 152 453 190 472 q 64 377 113 434 l 64 483 q 147 550 107 532 q 224 568 187 568 q 348 534 268 568 q 465 500 427 500 q 538 519 500 500 q 626 595 576 538 z "},"¡":{"ha":456,"x_min":0,"x_max":0,"o":""},"¢":{"ha":815,"x_min":0,"x_max":593,"o":"m 552 536 l 593 491 l 539 441 l 352 441 l 365 536 l 552 536 m 166 441 l 119 493 l 176 536 l 354 536 l 340 441 l 166 441 m 109 479 l 147 432 l 98 105 l 19 43 l 0 71 l 62 446 l 109 479 m 482 95 l 536 24 l 498 0 l 281 0 l 298 95 l 482 95 m 57 0 l 33 28 l 111 96 l 290 95 l 273 0 l 57 0 m 304 434 l 391 434 l 338 104 l 248 104 l 304 434 z "},"£":{"ha":815,"x_min":33,"x_max":677,"o":"m 650 972 l 677 945 l 598 882 l 416 882 l 431 972 l 650 972 m 552 536 l 593 491 l 539 441 l 352 441 l 365 536 l 552 536 m 166 441 l 119 493 l 176 536 l 354 536 l 340 441 l 166 441 m 482 95 l 536 24 l 498 0 l 281 0 l 298 95 l 482 95 m 57 0 l 33 28 l 111 96 l 290 95 l 273 0 l 57 0 m 313 543 l 401 543 l 456 873 l 366 873 l 313 543 m 295 433 l 288 377 l 167 103 l 105 103 l 113 159 l 236 433 l 295 433 z "},"¤":{"ha":688,"x_min":83,"x_max":604,"o":"m 237 380 q 304 341 265 353 q 344 336 324 336 q 383 341 363 336 q 450 380 422 353 q 489 447 477 408 q 495 486 495 467 q 489 526 495 506 q 450 593 477 565 q 382 631 422 620 q 343 637 363 637 q 304 631 323 637 q 237 593 264 619 q 199 526 211 566 q 193 486 193 506 q 199 448 193 467 q 237 380 210 408 m 163 612 l 83 692 l 137 747 l 217 667 q 284 699 247 688 q 345 708 314 708 q 401 700 372 708 q 470 667 439 688 l 550 747 l 604 692 l 525 613 q 557 544 546 582 q 566 486 566 515 q 557 429 566 458 q 525 359 546 391 l 604 280 l 550 225 l 470 305 q 401 273 439 283 q 344 264 373 264 q 286 273 315 264 q 217 305 248 283 l 137 225 l 83 280 l 163 359 q 130 429 141 391 q 122 486 122 458 q 131 545 122 516 q 163 612 142 583 z "},"¥":{"ha":815,"x_min":119,"x_max":601,"o":"m 552 536 l 593 491 l 539 441 l 352 441 l 365 536 l 552 536 m 166 441 l 119 493 l 176 536 l 354 536 l 340 441 l 166 441 m 601 873 l 593 817 l 473 543 l 411 543 l 419 599 l 542 873 l 601 873 m 221 874 l 277 874 l 315 604 l 305 542 l 245 542 l 211 815 l 221 874 m 304 434 l 391 434 l 338 104 l 248 104 l 304 434 z "},"¦":{"ha":688,"x_min":290,"x_max":398,"o":"m 290 252 l 398 252 l 398 -283 l 290 -283 l 290 252 m 290 1070 l 398 1070 l 398 535 l 290 535 l 290 1070 z "},"§":{"ha":688,"x_min":115,"x_max":572,"o":"m 370 218 q 435 254 408 229 q 485 366 485 298 q 484 373 485 370 l 483 373 q 480 391 482 382 q 404 477 465 433 q 318 497 363 497 q 233 467 265 497 q 201 387 201 437 q 370 218 201 304 m 316 -235 q 441 -188 393 -231 q 490 -76 490 -144 q 276 111 490 9 q 157 204 193 155 q 121 324 121 254 q 182 485 121 425 q 297 541 227 529 l 270 553 q 151 646 186 597 q 115 766 115 696 q 176 927 115 867 q 322 985 231 981 q 334 986 328 986 l 336 986 q 446 975 380 986 q 512 947 512 964 l 512 815 l 477 815 q 423 905 474 870 q 322 939 376 937 l 312 939 q 227 909 259 939 q 195 829 195 879 q 390 647 195 740 q 529 550 491 602 q 566 422 566 498 q 498 231 566 307 q 431 188 466 205 q 535 108 504 150 q 572 -19 572 56 q 504 -211 572 -135 q 316 -282 420 -280 l 316 -281 q 307 -282 312 -282 l 305 -282 q 195 -271 260 -282 q 129 -243 129 -260 l 129 -111 l 163 -111 q 218 -201 167 -166 q 316 -235 264 -231 z "},"¨":{"ha":694,"x_min":142,"x_max":536,"o":"m 151 874 l 199 923 q 216 931 208 931 q 235 922 224 931 l 281 872 q 288 855 288 863 q 280 837 288 846 l 233 786 q 216 774 222 774 q 199 783 207 774 l 148 841 q 142 857 142 849 q 151 874 142 865 m 399 874 l 447 923 q 464 931 456 931 q 482 922 471 931 l 529 872 q 536 855 536 863 q 528 838 536 846 l 481 786 q 464 774 469 774 q 447 783 454 774 l 395 842 q 389 857 389 849 q 399 874 389 865 z "},"©":{"ha":1135,"x_min":68,"x_max":1067,"o":"m 570 987 q 760 949 668 987 q 922 840 851 911 q 1029 679 991 772 q 1067 487 1067 586 q 1029 296 1067 387 q 919 133 991 204 q 757 25 848 62 q 565 -12 666 -12 q 376 25 466 -12 q 215 134 287 63 q 105 295 143 205 q 68 487 68 386 q 105 679 68 587 q 214 840 143 770 q 375 949 283 911 q 570 987 468 987 m 242 812 q 143 663 178 747 q 109 487 109 579 q 143 311 109 394 q 243 163 178 229 q 392 63 310 98 q 566 28 474 28 q 742 63 659 28 q 890 161 825 97 q 991 312 956 228 q 1027 487 1027 395 q 991 663 1027 578 q 893 812 956 748 q 744 912 828 877 q 569 947 660 947 q 391 912 476 947 q 242 812 307 877 m 587 151 q 408 197 490 151 q 281 323 325 243 q 238 488 238 402 q 282 653 238 573 q 410 778 327 733 q 582 823 492 823 q 633 819 608 823 q 684 805 658 814 q 690 804 688 804 q 708 825 703 804 l 736 825 l 785 690 l 755 690 q 667 774 720 754 q 567 792 618 792 l 557 792 q 444 744 498 787 q 361 624 389 701 q 339 499 339 563 q 340 465 339 482 q 388 313 348 383 q 489 210 427 243 q 602 182 538 183 q 733 220 686 182 q 781 305 781 258 l 817 305 l 817 237 q 751 179 817 206 q 587 151 686 151 z "},"ª":{"ha":439,"x_min":0,"x_max":0,"o":""},"«":{"ha":640,"x_min":118,"x_max":572,"o":"m 118 325 l 350 530 l 359 530 l 359 505 l 220 325 l 359 144 l 359 119 l 350 119 l 118 325 m 330 325 l 562 530 l 572 530 l 572 505 l 433 325 l 572 144 l 572 119 l 562 119 l 330 325 z "},"¬":{"ha":688,"x_min":59,"x_max":629,"o":"m 59 520 l 629 520 l 629 187 l 628 186 l 562 186 l 562 452 l 59 452 l 59 520 z "},"®":{"ha":1135,"x_min":68,"x_max":1067,"o":"m 509 745 l 509 492 l 511 486 q 549 431 527 448 q 587 416 569 416 l 591 416 q 633 443 612 419 q 665 509 654 466 q 673 578 673 543 q 673 597 673 587 q 654 681 670 642 q 615 733 637 720 q 572 745 593 745 l 509 745 m 667 391 l 723 312 q 825 216 791 216 l 848 216 l 848 182 l 613 182 l 613 216 l 644 216 q 664 231 664 216 q 617 309 664 251 l 566 378 q 509 406 538 378 l 509 298 q 534 216 509 216 l 570 216 l 570 182 l 355 182 l 355 216 l 385 216 q 410 298 410 216 l 410 663 q 385 745 410 745 l 355 745 l 355 793 l 597 793 q 682 764 640 792 q 744 687 722 736 q 766 584 766 637 q 745 482 766 531 q 667 391 723 433 m 570 987 q 760 949 668 987 q 922 840 851 911 q 1029 679 991 772 q 1067 487 1067 586 q 1029 296 1067 387 q 919 133 991 204 q 757 25 848 62 q 565 -12 666 -12 q 376 25 466 -12 q 215 134 287 63 q 105 295 143 205 q 68 487 68 386 q 105 679 68 587 q 214 840 143 770 q 375 949 283 911 q 570 987 468 987 m 242 812 q 143 663 178 747 q 109 487 109 579 q 143 311 109 394 q 243 163 178 229 q 392 63 310 98 q 566 28 474 28 q 742 63 659 28 q 890 161 825 97 q 991 312 956 228 q 1027 487 1027 395 q 991 663 1027 578 q 893 812 956 748 q 744 912 828 877 q 569 947 660 947 q 391 912 476 947 q 242 812 307 877 z "},"¯":{"ha":454,"x_min":0,"x_max":0,"o":""},"°":{"ha":810,"x_min":71,"x_max":456,"o":"m 224 882 l 171 954 l 204 972 l 420 972 l 406 882 l 224 882 m 157 944 l 214 873 l 157 541 l 113 507 l 71 555 l 133 925 l 157 944 m 166 441 l 119 493 l 176 536 l 354 536 l 340 441 l 166 441 m 313 543 l 401 543 l 456 873 l 366 873 l 313 543 z "},"±":{"ha":810,"x_min":33,"x_max":593,"o":"m 552 536 l 593 491 l 539 441 l 352 441 l 365 536 l 552 536 m 166 441 l 119 493 l 176 536 l 354 536 l 340 441 l 166 441 m 482 95 l 536 24 l 498 0 l 281 0 l 298 95 l 482 95 m 57 0 l 33 28 l 111 96 l 290 95 l 273 0 l 57 0 m 313 543 l 401 543 l 456 873 l 366 873 l 313 543 m 304 434 l 391 434 l 338 104 l 248 104 l 304 434 z "},"²":{"ha":688,"x_min":0,"x_max":0,"o":""},"³":{"ha":688,"x_min":0,"x_max":0,"o":""},"´":{"ha":815,"x_min":411,"x_max":601,"o":"m 601 873 l 593 817 l 473 543 l 411 543 l 419 599 l 542 873 l 601 873 z "},"µ":{"ha":810,"x_min":0,"x_max":711,"o":"m 157 944 l 214 873 l 157 541 l 113 507 l 71 555 l 133 925 l 157 944 m 688 935 l 711 906 l 654 545 l 602 503 l 564 545 l 610 874 l 688 935 m 552 536 l 593 491 l 539 441 l 352 441 l 365 536 l 552 536 m 166 441 l 119 493 l 176 536 l 354 536 l 340 441 l 166 441 m 109 479 l 147 432 l 98 105 l 19 43 l 0 71 l 62 446 l 109 479 z "},"¶":{"ha":694,"x_min":63,"x_max":630,"o":"m 630 973 l 630 926 l 544 926 l 544 0 l 488 0 l 488 926 l 376 926 l 376 0 l 319 0 l 319 500 q 132 570 201 506 q 63 736 63 634 q 136 908 63 843 q 330 973 209 973 l 630 973 z "},"·":{"ha":345,"x_min":87,"x_max":257,"o":"m 98 502 l 154 559 q 174 568 164 568 q 195 557 182 568 l 249 499 q 257 479 257 488 q 248 458 257 469 l 193 399 q 174 385 180 385 q 154 395 163 385 l 94 463 q 87 481 87 472 q 98 502 87 491 z "},"¸":{"ha":694,"x_min":244,"x_max":521,"o":"m 244 -197 q 347 -232 302 -232 q 411 -217 392 -232 q 431 -172 431 -203 q 397 -129 431 -142 q 328 -118 370 -118 q 305 -119 317 -118 l 338 0 l 380 0 l 355 -71 q 397 -67 377 -68 q 488 -95 456 -67 q 521 -172 521 -122 q 481 -253 521 -223 q 372 -283 441 -283 q 244 -262 298 -283 l 244 -197 z "},"¹":{"ha":688,"x_min":0,"x_max":0,"o":""},"º":{"ha":487,"x_min":0,"x_max":0,"o":""},"»":{"ha":640,"x_min":68,"x_max":522,"o":"m 78 119 l 68 119 l 68 144 l 208 325 l 68 505 l 68 530 l 78 530 l 310 325 l 78 119 m 290 119 l 281 119 l 281 144 l 420 325 l 281 505 l 281 530 l 290 530 l 522 325 l 290 119 z "},"¼":{"ha":1158,"x_min":0,"x_max":0,"o":""},"½":{"ha":1332,"x_min":0,"x_max":0,"o":""},"¾":{"ha":1158,"x_min":0,"x_max":0,"o":""},"¿":{"ha":810,"x_min":0,"x_max":536,"o":"m 166 441 l 119 493 l 176 536 l 354 536 l 340 441 l 166 441 m 109 479 l 147 432 l 98 105 l 19 43 l 0 71 l 62 446 l 109 479 m 482 95 l 536 24 l 498 0 l 281 0 l 298 95 l 482 95 m 57 0 l 33 28 l 111 96 l 290 95 l 273 0 l 57 0 m 313 543 l 401 543 l 456 873 l 366 873 l 313 543 z "},"À":{"ha":1044,"x_min":0,"x_max":0,"o":""},"Á":{"ha":1044,"x_min":0,"x_max":0,"o":""},"Â":{"ha":1044,"x_min":0,"x_max":0,"o":""},"Ã":{"ha":1044,"x_min":0,"x_max":0,"o":""},"Ä":{"ha":1044,"x_min":0,"x_max":0,"o":""},"Å":{"ha":1044,"x_min":0,"x_max":0,"o":""},"Æ":{"ha":818,"x_min":0,"x_max":711,"o":"m 650 972 l 677 945 l 598 882 l 416 882 l 431 972 l 650 972 m 224 882 l 171 954 l 204 972 l 420 972 l 406 882 l 224 882 m 157 944 l 214 873 l 157 541 l 113 507 l 71 555 l 133 925 l 157 944 m 688 935 l 711 906 l 654 545 l 602 503 l 564 545 l 610 874 l 688 935 m 552 536 l 593 491 l 539 441 l 352 441 l 365 536 l 552 536 m 166 441 l 119 493 l 176 536 l 354 536 l 340 441 l 166 441 m 109 479 l 147 432 l 98 105 l 19 43 l 0 71 l 62 446 l 109 479 m 597 475 l 640 427 l 578 56 l 550 38 l 494 105 l 551 433 l 597 475 m 482 95 l 536 24 l 498 0 l 281 0 l 298 95 l 482 95 m 57 0 l 33 28 l 111 96 l 290 95 l 273 0 l 57 0 m 313 543 l 401 543 l 456 873 l 366 873 l 313 543 m 601 873 l 593 817 l 473 543 l 411 543 l 419 599 l 542 873 l 601 873 m 221 874 l 277 874 l 315 604 l 305 542 l 245 542 l 211 815 l 221 874 m 304 434 l 391 434 l 338 104 l 248 104 l 304 434 m 399 433 l 455 433 l 493 163 l 484 101 l 423 101 l 389 374 l 399 433 m 295 433 l 288 377 l 167 103 l 105 103 l 113 159 l 236 433 l 295 433 z "},"Ç":{"ha":949,"x_min":0,"x_max":0,"o":""},"È":{"ha":781,"x_min":0,"x_max":0,"o":""},"É":{"ha":781,"x_min":0,"x_max":0,"o":""},"Ê":{"ha":781,"x_min":0,"x_max":0,"o":""},"Ë":{"ha":781,"x_min":0,"x_max":0,"o":""},"Ì":{"ha":446,"x_min":0,"x_max":0,"o":""},"Í":{"ha":446,"x_min":0,"x_max":0,"o":""},"Î":{"ha":446,"x_min":0,"x_max":0,"o":""},"Ï":{"ha":446,"x_min":0,"x_max":0,"o":""},"Ð":{"ha":1029,"x_min":0,"x_max":0,"o":""},"Ñ":{"ha":1054,"x_min":0,"x_max":0,"o":""},"Ò":{"ha":1095,"x_min":0,"x_max":0,"o":""},"Ó":{"ha":1095,"x_min":0,"x_max":0,"o":""},"Ô":{"ha":1095,"x_min":0,"x_max":0,"o":""},"Õ":{"ha":1095,"x_min":0,"x_max":0,"o":""},"Ö":{"ha":1095,"x_min":0,"x_max":0,"o":""},"×":{"ha":688,"x_min":109,"x_max":578,"o":"m 344 419 l 176 252 l 109 319 l 277 486 l 109 654 l 176 721 l 344 553 l 512 721 l 578 654 l 411 486 l 578 319 l 511 252 l 344 419 z "},"Ø":{"ha":1095,"x_min":0,"x_max":0,"o":""},"Ù":{"ha":1018,"x_min":0,"x_max":0,"o":""},"Ú":{"ha":1018,"x_min":0,"x_max":0,"o":""},"Û":{"ha":1018,"x_min":0,"x_max":0,"o":""},"Ü":{"ha":1018,"x_min":0,"x_max":0,"o":""},"Ý":{"ha":836,"x_min":0,"x_max":0,"o":""},"Þ":{"ha":760,"x_min":0,"x_max":0,"o":""},"ß":{"ha":848,"x_min":0,"x_max":0,"o":""},"à":{"ha":625,"x_min":0,"x_max":0,"o":""},"á":{"ha":625,"x_min":0,"x_max":0,"o":""},"â":{"ha":625,"x_min":0,"x_max":0,"o":""},"ã":{"ha":625,"x_min":0,"x_max":0,"o":""},"ä":{"ha":625,"x_min":0,"x_max":0,"o":""},"å":{"ha":625,"x_min":0,"x_max":0,"o":""},"æ":{"ha":986,"x_min":0,"x_max":0,"o":""},"ç":{"ha":614,"x_min":0,"x_max":0,"o":""},"è":{"ha":616,"x_min":0,"x_max":0,"o":""},"é":{"ha":616,"x_min":0,"x_max":0,"o":""},"ê":{"ha":616,"x_min":0,"x_max":0,"o":""},"ë":{"ha":616,"x_min":0,"x_max":0,"o":""},"ì":{"ha":349,"x_min":0,"x_max":0,"o":""},"í":{"ha":349,"x_min":0,"x_max":0,"o":""},"î":{"ha":349,"x_min":0,"x_max":0,"o":""},"ï":{"ha":349,"x_min":0,"x_max":0,"o":""},"ð":{"ha":772,"x_min":0,"x_max":0,"o":""},"ñ":{"ha":751,"x_min":0,"x_max":0,"o":""},"ò":{"ha":685,"x_min":0,"x_max":0,"o":""},"ó":{"ha":685,"x_min":0,"x_max":0,"o":""},"ô":{"ha":685,"x_min":0,"x_max":0,"o":""},"õ":{"ha":685,"x_min":0,"x_max":0,"o":""},"ö":{"ha":685,"x_min":0,"x_max":0,"o":""},"÷":{"ha":688,"x_min":59,"x_max":629,"o":"m 59 439 l 59 534 l 628 534 l 629 533 l 629 439 l 59 439 m 270 277 l 326 334 q 345 343 336 343 q 366 332 354 343 l 420 274 q 429 254 429 263 q 419 233 429 244 l 365 174 q 345 160 351 160 q 326 170 334 160 l 266 238 q 259 256 259 247 q 270 277 259 266 m 270 747 l 326 804 q 345 813 336 813 q 366 802 354 813 l 420 744 q 429 724 429 733 q 419 703 429 714 l 365 644 q 345 630 351 630 q 326 640 334 630 l 266 708 q 259 726 259 717 q 270 747 259 736 z "},"ø":{"ha":685,"x_min":0,"x_max":0,"o":""},"ù":{"ha":718,"x_min":0,"x_max":0,"o":""},"ú":{"ha":718,"x_min":0,"x_max":0,"o":""},"û":{"ha":718,"x_min":0,"x_max":0,"o":""},"ü":{"ha":718,"x_min":0,"x_max":0,"o":""},"ý":{"ha":589,"x_min":0,"x_max":0,"o":""},"þ":{"ha":685,"x_min":0,"x_max":0,"o":""},"ÿ":{"ha":589,"x_min":0,"x_max":0,"o":""},"ı":{"ha":349,"x_min":13,"x_max":321,"o":"m 222 151 q 290 34 222 34 l 321 34 l 321 0 l 22 0 l 22 34 l 53 34 q 121 151 121 34 l 121 444 q 45 496 121 496 l 13 496 l 13 526 q 190 650 163 573 l 222 650 l 222 151 z "},"ˆ":{"ha":694,"x_min":150,"x_max":545,"o":"m 150 732 l 307 972 l 387 972 l 545 732 l 505 732 l 347 878 l 189 732 l 150 732 z "},"ˇ":{"ha":694,"x_min":150,"x_max":545,"o":"m 150 972 l 189 972 l 347 827 l 505 972 l 545 972 l 387 731 l 307 731 l 150 972 z "},"ˉ":{"ha":694,"x_min":172,"x_max":522,"o":"m 172 810 l 172 895 l 522 895 l 522 810 l 172 810 z "},"˘":{"ha":694,"x_min":149,"x_max":545,"o":"m 149 915 l 183 915 q 234 842 195 865 q 347 819 273 819 q 460 842 421 819 q 510 915 498 865 l 545 915 q 481 778 531 825 q 347 732 431 732 q 214 779 264 732 q 149 915 163 825 z "},"˙":{"ha":694,"x_min":277,"x_max":422,"o":"m 286 874 l 333 923 q 342 929 337 927 q 351 931 347 931 q 360 929 355 931 q 368 923 364 927 l 416 871 q 421 865 420 869 q 422 855 422 861 q 420 845 422 849 q 415 837 419 841 l 367 785 q 356 776 359 778 q 351 774 353 774 q 340 776 345 774 q 333 782 336 778 l 282 841 q 278 847 279 844 q 277 857 277 851 q 279 865 277 861 q 286 874 281 869 z "},"˚":{"ha":694,"x_min":227,"x_max":468,"o":"m 279 852 q 298 804 279 824 q 347 785 318 785 q 395 804 375 785 q 414 852 414 824 q 394 900 414 880 q 347 920 374 920 q 299 900 319 920 q 279 852 279 880 m 227 852 q 262 938 227 903 q 347 972 296 972 q 433 938 398 972 q 468 852 468 903 q 433 767 468 802 q 347 732 398 732 q 262 767 296 732 q 227 852 227 802 z "},"˛":{"ha":694,"x_min":250,"x_max":500,"o":"m 434 0 q 359 -81 386 -42 q 332 -157 332 -120 q 351 -208 332 -189 q 400 -227 369 -227 q 447 -217 427 -227 q 481 -184 467 -206 l 500 -195 q 438 -260 475 -237 q 357 -283 401 -283 q 280 -259 310 -283 q 250 -198 250 -235 q 291 -92 250 -146 q 401 0 332 -37 l 434 0 z "},"˜":{"ha":810,"x_min":171,"x_max":677,"o":"m 650 972 l 677 945 l 598 882 l 416 882 l 431 972 l 650 972 m 224 882 l 171 954 l 204 972 l 420 972 l 406 882 l 224 882 z "},"˝":{"ha":694,"x_min":147,"x_max":547,"o":"m 147 732 l 245 917 q 276 960 261 947 q 307 972 290 972 q 340 959 326 972 q 353 927 353 945 q 346 903 353 916 q 326 876 339 890 l 186 732 l 147 732 m 340 732 l 438 917 q 469 960 454 947 q 500 972 484 972 q 533 959 519 972 q 547 927 547 945 q 539 903 547 916 q 519 876 532 890 l 380 732 l 340 732 z "},"–":{"ha":751,"x_min":38,"x_max":713,"o":"m 38 284 l 38 366 l 713 366 l 713 284 l 38 284 z "},"—":{"ha":1389,"x_min":0,"x_max":1389,"o":"m 0 284 l 0 366 l 1389 366 l 1389 284 l 0 284 z "},"‘":{"ha":378,"x_min":126,"x_max":297,"o":"m 216 689 q 156 733 186 689 q 126 836 126 778 q 174 990 126 910 q 269 1069 222 1069 l 269 1040 q 210 911 219 1011 q 297 802 210 831 l 297 774 l 216 689 z "},"’":{"ha":378,"x_min":81,"x_max":252,"o":"m 161 1069 q 221 1025 191 1069 q 252 922 252 981 q 203 769 252 848 q 109 689 155 689 l 109 718 q 168 847 159 747 q 81 956 168 928 l 81 985 l 161 1069 z "},"‚":{"ha":378,"x_min":81,"x_max":252,"o":"m 161 191 q 221 146 191 191 q 252 43 252 102 q 203 -110 252 -31 q 109 -190 155 -190 l 109 -161 q 168 -32 159 -132 q 81 77 168 49 l 81 106 l 161 191 z "},"“":{"ha":617,"x_min":126,"x_max":536,"o":"m 216 689 q 156 733 186 689 q 126 836 126 778 q 174 990 126 910 q 269 1069 222 1069 l 269 1040 q 210 911 219 1011 q 297 802 210 831 l 297 774 l 216 689 m 456 689 q 396 733 426 689 q 366 836 366 778 q 414 990 366 910 q 508 1069 462 1069 l 508 1040 q 449 911 458 1011 q 536 802 449 831 l 536 774 l 456 689 z "},"”":{"ha":617,"x_min":81,"x_max":491,"o":"m 161 1069 q 221 1025 191 1069 q 252 922 252 981 q 203 769 252 848 q 109 689 155 689 l 109 718 q 168 847 159 747 q 81 956 168 928 l 81 985 l 161 1069 m 401 1069 q 461 1025 431 1069 q 491 922 491 981 q 443 769 491 848 q 349 689 395 689 l 349 718 q 408 847 398 747 q 320 956 408 928 l 320 985 l 401 1069 z "},"„":{"ha":617,"x_min":81,"x_max":491,"o":"m 161 191 q 221 146 191 191 q 252 43 252 102 q 203 -110 252 -31 q 109 -190 155 -190 l 109 -161 q 168 -32 159 -132 q 81 77 168 49 l 81 106 l 161 191 m 401 191 q 461 146 431 191 q 491 43 491 102 q 443 -110 491 -31 q 349 -190 395 -190 l 349 -161 q 408 -32 398 -132 q 320 77 408 49 l 320 106 l 401 191 z "},"†":{"ha":688,"x_min":48,"x_max":640,"o":"m 330 693 q 293 814 324 759 q 254 901 254 882 q 279 955 254 935 q 344 975 303 975 q 408 956 382 975 q 433 907 433 937 q 396 814 433 886 q 359 693 365 757 q 479 730 424 699 q 566 768 547 768 q 620 744 600 768 q 640 679 640 720 q 622 615 640 640 q 572 589 603 589 q 480 627 551 589 q 359 665 422 658 q 433 477 364 546 q 357 -183 361 165 l 332 -183 q 254 477 328 165 q 330 665 323 546 q 209 628 264 659 q 121 589 140 589 q 68 614 88 589 q 48 679 48 638 q 67 743 48 718 q 115 768 85 768 q 208 730 137 768 q 330 693 266 699 z "},"‡":{"ha":688,"x_min":47,"x_max":640,"o":"m 358 126 q 479 165 422 134 q 572 202 550 202 q 621 177 602 202 q 640 113 640 151 q 619 47 640 72 q 566 23 599 23 q 478 62 547 23 q 358 98 423 93 q 395 -23 364 35 q 433 -116 433 -94 q 407 -164 433 -146 q 343 -183 382 -183 q 278 -163 302 -183 q 254 -110 254 -143 q 292 -22 254 -91 q 329 98 323 33 q 208 61 265 92 q 115 23 136 23 q 66 48 85 23 q 47 113 47 74 q 67 178 47 153 q 121 202 87 202 q 208 163 140 202 q 329 126 264 133 q 254 396 323 279 q 329 665 323 512 q 208 628 264 659 q 121 589 140 589 q 67 614 87 589 q 47 679 47 638 q 66 743 47 718 q 115 768 85 768 q 208 730 136 768 q 329 693 265 699 q 292 814 323 759 q 254 901 254 882 q 278 955 254 935 q 343 975 302 975 q 407 956 382 975 q 433 907 433 937 q 395 814 433 886 q 358 693 364 757 q 478 730 423 699 q 566 768 547 768 q 619 744 599 768 q 640 679 640 720 q 621 615 640 640 q 572 589 602 589 q 479 627 550 589 q 358 665 422 658 q 433 396 363 512 q 358 126 363 279 z "},"•":{"ha":694,"x_min":146,"x_max":548,"o":"m 146 487 q 205 629 146 570 q 348 687 264 687 q 489 628 431 687 q 548 487 548 570 q 489 345 548 404 q 347 286 429 286 q 205 345 263 286 q 146 487 146 404 z "},"…":{"ha":1389,"x_min":87,"x_max":1183,"o":"m 98 113 l 154 170 q 174 180 164 180 q 195 169 182 180 l 249 111 q 257 91 257 100 q 248 70 257 81 l 193 10 q 174 -3 180 -3 q 154 6 163 -3 l 94 75 q 87 92 87 83 q 98 113 87 102 m 562 113 l 617 170 q 637 180 627 180 q 658 169 646 180 l 712 111 q 720 91 720 100 q 711 70 720 81 l 656 10 q 637 -3 643 -3 q 617 6 626 -3 l 557 75 q 551 92 551 83 q 562 113 551 102 m 1025 113 l 1080 170 q 1100 180 1090 180 q 1121 169 1109 180 l 1175 111 q 1183 91 1183 100 q 1174 70 1183 81 l 1120 10 q 1100 -3 1106 -3 q 1080 6 1089 -3 l 1021 75 q 1014 92 1014 83 q 1025 113 1014 102 z "},"‹":{"ha":428,"x_min":118,"x_max":359,"o":"m 118 325 l 350 530 l 359 530 l 359 505 l 220 325 l 359 144 l 359 119 l 350 119 l 118 325 z "},"›":{"ha":428,"x_min":68,"x_max":310,"o":"m 78 119 l 68 119 l 68 144 l 208 325 l 68 505 l 68 530 l 78 530 l 310 325 l 78 119 z "},"⁄":{"ha":232,"x_min":-232,"x_max":463,"o":"m -232 -20 l 406 971 l 463 971 l -174 -20 l -232 -20 z "},"₣":{"ha":688,"x_min":33,"x_max":723,"o":"m 168 242 l 36 242 l 36 283 l 168 283 l 168 779 q 98 939 168 939 l 33 939 l 33 972 l 653 972 l 723 816 l 690 816 q 561 939 650 939 l 347 939 q 277 779 277 939 l 277 541 l 522 541 q 590 583 590 541 l 590 623 l 624 623 l 624 391 l 590 391 l 590 431 q 522 473 590 473 l 277 473 l 277 283 l 409 283 l 409 242 l 277 242 l 277 193 q 347 34 277 34 l 412 34 l 412 0 l 33 0 l 33 34 l 98 34 q 168 193 168 34 l 168 242 z "},"₤":{"ha":688,"x_min":52,"x_max":635,"o":"m 507 913 q 399 935 458 935 l 397 935 q 269 866 330 935 q 212 703 212 803 q 212 682 212 692 q 235 538 212 610 l 492 538 l 492 497 l 248 497 q 266 456 256 477 l 505 456 l 505 416 l 287 416 q 311 322 311 373 q 201 68 311 213 l 473 68 q 602 157 562 68 l 635 157 l 565 0 l 77 0 l 78 34 q 205 317 205 195 q 182 414 205 370 l 180 416 l 64 416 l 64 456 l 161 456 q 143 497 151 477 l 52 497 l 52 538 l 128 538 q 104 669 104 610 q 188 904 104 822 q 398 986 271 986 q 524 977 449 986 q 599 954 599 967 l 599 844 l 559 844 q 507 913 556 886 z "},"₧":{"ha":1375,"x_min":33,"x_max":1334,"o":"m 277 939 l 277 490 q 282 478 279 484 q 355 374 310 409 q 434 345 394 345 q 447 345 441 345 q 533 396 493 351 q 592 516 573 441 q 607 637 607 575 q 606 669 607 654 q 573 818 602 748 q 499 916 544 887 q 423 939 461 939 q 409 939 416 939 l 277 939 m 1015 616 l 893 616 l 893 151 q 916 71 893 96 q 971 45 935 50 l 923 176 l 956 176 q 1034 58 994 88 q 1120 28 1072 28 l 1124 28 q 1227 64 1187 28 q 1267 156 1267 100 q 1091 309 1267 225 q 994 385 1023 345 q 964 484 964 426 q 1014 615 964 566 l 1015 616 m 705 617 q 672 486 700 549 q 576 365 638 408 q 448 322 515 322 q 318 366 380 322 q 277 400 296 380 l 277 193 q 347 34 277 34 l 412 34 l 412 0 l 33 0 l 33 34 l 98 34 q 168 193 168 34 l 168 779 q 98 939 168 939 l 33 939 l 33 972 l 452 972 q 574 930 514 971 q 671 810 636 888 q 706 650 705 734 l 713 650 q 859 890 859 650 l 893 890 l 893 650 l 1069 650 q 1143 663 1097 663 l 1145 663 q 1235 654 1181 663 q 1289 631 1289 645 l 1289 524 l 1261 524 q 1216 597 1258 568 q 1126 625 1175 625 q 1056 601 1082 625 q 1030 535 1030 576 q 1190 386 1030 462 q 1303 306 1272 349 q 1334 202 1334 264 q 1278 45 1334 107 q 1123 -13 1208 -12 q 1052 -5 1084 -13 q 1014 -1 1033 -1 q 989 -3 1002 -1 q 949 -7 970 -7 q 832 32 865 -7 q 793 151 798 71 l 792 151 l 792 617 l 705 617 z "},"€":{"ha":810,"x_min":119,"x_max":677,"o":"m 650 972 l 677 945 l 598 882 l 416 882 l 431 972 l 650 972 m 552 536 l 593 491 l 539 441 l 352 441 l 365 536 l 552 536 m 166 441 l 119 493 l 176 536 l 354 536 l 340 441 l 166 441 m 482 95 l 536 24 l 498 0 l 281 0 l 298 95 l 482 95 m 313 543 l 401 543 l 456 873 l 366 873 l 313 543 m 304 434 l 391 434 l 338 104 l 248 104 l 304 434 z "},"№":{"ha":1540,"x_min":0,"x_max":0,"o":""},"™":{"ha":1015,"x_min":0,"x_max":0,"o":""},"∂":{"ha":688,"x_min":52,"x_max":635,"o":"m 157 364 q 161 311 157 336 q 202 155 170 228 q 283 43 235 81 q 370 7 326 7 q 378 7 374 7 q 465 55 426 11 q 519 177 504 100 q 530 278 530 227 q 527 336 530 307 q 485 493 517 418 q 404 605 452 567 q 317 639 359 639 l 309 639 q 224 592 263 635 q 168 471 184 548 q 157 364 157 414 m 635 323 q 597 153 635 234 q 489 28 559 73 q 344 -17 420 -17 q 198 28 268 -17 q 91 153 129 73 q 52 323 52 234 q 92 494 52 412 q 201 619 131 575 q 344 663 271 663 q 488 619 418 663 q 524 591 507 607 q 366 847 467 751 q 144 952 264 943 l 144 989 q 494 796 352 989 q 635 323 635 603 z "},"∆":{"ha":733,"x_min":4,"x_max":728,"o":"m 349 810 l 73 83 l 616 83 l 349 810 m 371 972 l 728 0 l 4 0 l 371 972 z "},"∏":{"ha":1027,"x_min":33,"x_max":995,"o":"m 347 939 q 277 779 277 939 l 277 -90 q 347 -249 277 -249 l 412 -249 l 412 -283 l 33 -283 l 33 -249 l 98 -249 q 168 -90 168 -249 l 168 779 q 98 939 168 939 l 33 939 l 33 972 l 995 972 l 995 939 l 929 939 q 860 779 860 939 l 860 -90 q 929 -249 860 -249 l 995 -249 l 995 -283 l 615 -283 l 615 -249 l 680 -249 q 750 -90 750 -249 l 750 779 q 680 939 750 939 l 347 939 z "},"∑":{"ha":818,"x_min":81,"x_max":776,"o":"m 718 372 l 184 -248 l 614 -248 q 743 -125 703 -248 l 776 -125 l 706 -282 l 81 -282 l 81 -248 q 153 -212 123 -248 l 603 317 l 153 900 q 81 939 123 939 l 81 972 l 706 972 l 776 815 l 743 815 q 614 939 703 939 l 286 939 l 718 372 z "},"−":{"ha":815,"x_min":119,"x_max":593,"o":"m 552 536 l 593 491 l 539 441 l 352 441 l 365 536 l 552 536 m 166 441 l 119 493 l 176 536 l 354 536 l 340 441 l 166 441 z "},"√":{"ha":688,"x_min":12,"x_max":715,"o":"m 123 0 l 12 243 l 62 267 l 119 142 l 613 1139 l 715 1139 l 715 1098 l 666 1098 l 123 0 z "},"∞":{"ha":688,"x_min":45,"x_max":645,"o":"m 298 512 q 248 602 288 582 q 191 617 216 617 q 175 616 182 617 q 112 586 142 609 q 68 528 83 562 q 54 467 54 497 l 54 462 q 73 401 56 429 q 121 362 90 374 q 163 355 141 355 q 185 357 174 355 q 247 386 217 363 q 298 512 276 409 m 316 466 q 380 362 324 401 q 463 330 427 330 q 477 331 471 330 q 557 366 519 339 q 614 435 595 393 q 632 508 632 471 l 632 515 q 608 589 631 556 q 546 635 585 622 q 494 644 521 644 q 465 642 479 644 q 378 600 419 635 q 316 466 338 564 m 305 561 q 319 608 311 585 q 384 701 342 667 q 471 734 425 734 q 557 701 516 734 q 622 610 599 669 q 645 486 645 551 q 622 363 645 422 q 557 271 599 304 q 471 239 516 239 q 384 272 425 239 q 319 364 342 305 q 305 412 311 388 q 297 384 302 397 q 247 307 279 334 q 180 280 215 280 q 112 308 144 280 q 62 385 79 336 q 45 486 45 434 q 62 587 45 538 q 112 665 79 637 q 180 692 144 692 q 247 665 215 692 q 297 589 279 638 q 305 561 302 575 z "},"∫":{"ha":451,"x_min":-49,"x_max":492,"o":"m -8 -191 q -49 -171 -49 -191 l -49 -63 l -24 -63 q -1 -107 -24 -92 q 42 -121 22 -121 l 43 -121 q 121 -12 98 -121 q 148 203 142 98 l 195 701 l 201 743 q 292 1034 219 904 q 451 1164 366 1164 q 492 1144 492 1164 l 492 1036 l 467 1036 q 444 1080 467 1065 q 401 1095 420 1095 q 322 989 353 1095 q 289 743 292 884 l 239 222 q 151 -62 226 66 q -8 -191 76 -191 z "},"≈":{"ha":688,"x_min":64,"x_max":626,"o":"m 626 714 l 626 608 q 543 542 583 559 q 465 525 503 525 q 344 558 424 525 q 224 591 264 591 q 152 572 190 591 q 64 496 113 553 l 64 602 q 147 669 107 651 q 224 686 187 686 q 348 653 268 686 q 465 619 427 619 q 538 638 500 619 q 626 714 576 657 m 626 478 l 626 372 q 543 306 583 323 q 465 289 503 289 q 344 322 424 289 q 224 355 264 355 q 152 336 190 355 q 64 260 113 317 l 64 366 q 147 433 107 415 q 224 450 187 450 q 348 417 268 450 q 465 383 427 383 q 538 402 500 383 q 626 478 576 421 z "},"≤":{"ha":688,"x_min":59,"x_max":629,"o":"m 629 728 l 205 485 l 629 244 l 629 131 l 59 457 l 59 513 l 629 842 l 629 728 m 59 1 l 59 96 l 628 96 l 629 95 l 629 1 l 59 1 z "},"≥":{"ha":688,"x_min":59,"x_max":629,"o":"m 59 842 l 629 513 l 629 457 l 59 131 l 59 244 l 483 485 l 59 728 l 59 842 m 59 1 l 59 96 l 628 96 l 629 96 l 629 1 l 59 1 z "},"":{"ha":728,"x_min":0,"x_max":0,"o":""},"":{"ha":733,"x_min":0,"x_max":0,"o":""}}}
